HIERARCHY
ROOT SpineBase
{
  OFFSET 0.000000 0.000000 0.000000
  CHANNELS 6 Xposition Yposition Zposition Zrotation Xrotation Yrotation
  JOINT SpineMid
  {
    OFFSET 0.000000 26.797977 0.000000
    CHANNELS 3 Zrotation Xrotation Yrotation
    JOINT SpineShoulder
    {
      OFFSET -0.038534 19.820188 -0.692840
      CHANNELS 3 Zrotation Xrotation Yrotation
      JOINT Neck
      {
        OFFSET -0.041058 6.527982 -0.537016
        CHANNELS 3 Zrotation Xrotation Yrotation
        JOINT Head
        {
          OFFSET -2.324093 11.110769 -0.956603
          CHANNELS 3 Zrotation Xrotation Yrotation
          End Site
          {
            OFFSET 0 0 0
          }
        }
      }
      JOINT ShoulderLeft
      {
        OFFSET -16.081548 -0.062298 4.788327
        CHANNELS 3 Zrotation Xrotation Yrotation
        JOINT ElbowLeft
        {
          OFFSET -5.262168 -22.159462 -2.962641
          CHANNELS 3 Zrotation Xrotation Yrotation
          JOINT WristLeft
          {
            OFFSET 16.931853 10.358459 -24.481505
            CHANNELS 3 Zrotation Xrotation Yrotation
            JOINT HandLeft
            {
              OFFSET 2.085170 4.000355 -12.231428
              CHANNELS 3 Zrotation Xrotation Yrotation
              JOINT HandTipLeft
              {
                OFFSET 0.346036 1.171049 -3.402680
                CHANNELS 3 Zrotation Xrotation Yrotation
                End Site
                {
                  OFFSET 0 0 0
                }
              }
              JOINT ThumbLeft
              {
                OFFSET 4.155995 -1.893133 -0.987565
                CHANNELS 3 Zrotation Xrotation Yrotation
                End Site
                {
                  OFFSET 0 0 0
                }
              }
            }
          }
        }
      }
      JOINT ShoulderRight
      {
        OFFSET 15.440161 -1.018657 -7.090066
        CHANNELS 3 Zrotation Xrotation Yrotation
        JOINT ElbowRight
        {
          OFFSET 3.766518 -21.261957 -8.583191
          CHANNELS 3 Zrotation Xrotation Yrotation
          JOINT WristRight
          {
            OFFSET -17.865315 10.477227 -11.694563
            CHANNELS 3 Zrotation Xrotation Yrotation
            JOINT HandRight
            {
              OFFSET -6.564414 5.050698 -6.631399
              CHANNELS 3 Zrotation Xrotation Yrotation
              JOINT HandTipRight
              {
                OFFSET -3.033612 2.997492 -3.305310
                CHANNELS 3 Zrotation Xrotation Yrotation
                End Site
                {
                  OFFSET 0 0 0
                }
              }
              JOINT ThumbRight
              {
                OFFSET -3.407502 -0.380738 2.641075
                CHANNELS 3 Zrotation Xrotation Yrotation
                End Site
                {
                  OFFSET 0 0 0
                }
              }
            }
          }
        }
      }
    }
  }
  JOINT HipLeft
  {
    OFFSET -6.664918 0.253761 -0.071607
    CHANNELS 3 Zrotation Xrotation Yrotation
    JOINT KneeLeft
    {
      OFFSET -5.260709 -33.068134 2.723043
      CHANNELS 3 Zrotation Xrotation Yrotation
      JOINT AnkleLeft
      {
        OFFSET -1.687131 -34.693313 7.987514
        CHANNELS 3 Zrotation Xrotation Yrotation
        JOINT FootLeft
        {
          OFFSET -2.026208 -7.729297 -5.467648
          CHANNELS 3 Zrotation Xrotation Yrotation
          End Site
          {
            OFFSET 0 0 0
          }
        }
      }
    }
  }
  JOINT HipRight
  {
    OFFSET 6.326986 0.883199 -6.762284
    CHANNELS 3 Zrotation Xrotation Yrotation
    JOINT KneeRight
    {
      OFFSET 4.766918 -29.447226 4.900998
      CHANNELS 3 Zrotation Xrotation Yrotation
      JOINT AnkleRight
      {
        OFFSET 0.783787 -37.734233 9.042412
        CHANNELS 3 Zrotation Xrotation Yrotation
        JOINT FootRight
        {
          OFFSET -3.506611 -3.932373 -12.506411
          CHANNELS 3 Zrotation Xrotation Yrotation
          End Site
          {
            OFFSET 0 0 0
          }
        }
      }
    }
  }
}
MOTION
Frames: 16
Frame Time: 0.033333
18.418166 75.323284 366.091263 0.460231 -0.322417 24.901275 -0.281702 0.486219 -24.898785 -0.000000 0.000000 0.000000 -2.042958 -3.978498 -1.080179 0.000000 0.000000 0.000000 4.906581 4.779311 -2.005884 3.306176 2.841383 11.799305 -28.353362 -22.637632 -35.683868 0.085736 12.100462 0.388970 0.000000 0.000000 0.000000 0.000000 0.000000 0.000000 0.531880 -1.291600 -0.439169 0.930375 -1.789814 -3.013398 5.612302 6.868479 16.484884 -5.660721 7.295313 -3.394423 0.000000 0.000000 0.000000 0.000000 0.000000 0.000000 -0.842817 -0.598874 -24.709641 -0.074940 0.249558 -0.170865 -5.357543 28.464377 -1.738592 0.000000 0.000000 0.000000 -0.281702 0.486219 -24.898785 -0.000000 0.000000 0.000000 -0.000000 0.000000 0.000000 0.000000 0.000000 0.000000
18.413585 75.347084 366.087176 0.426738 -0.335101 24.959992 -0.245485 0.483874 -24.957707 -0.000000 0.000000 0.000000 -1.741536 -3.833962 -1.010789 0.000000 0.000000 0.000000 3.651565 3.866765 -1.534856 4.736373 4.198554 11.138311 -32.919164 -27.616377 -38.608385 -0.716249 20.115791 0.507707 0.000000 0.000000 0.000000 0.000000 0.000000 0.000000 -0.000000 0.000000 0.000000 0.978780 -3.377634 -4.427188 6.498165 8.351146 19.403116 -4.865881 8.014206 -2.537638 0.000000 0.000000 0.000000 0.000000 0.000000 0.000000 -0.928021 -0.660504 -24.759302 0.140573 1.325022 -0.201083 -4.428880 22.298771 -1.663686 0.000000 0.000000 0.000000 -0.245485 0.483874 -24.957707 -0.000000 0.000000 0.000000 -0.000000 0.000000 0.000000 0.000000 0.000000 0.000000
18.386111 75.389140 366.086896 0.359060 -0.354333 25.076672 -0.175047 0.473111 -25.074839 -0.000000 0.000000 0.000000 -1.605039 -3.705573 -0.965622 0.000000 0.000000 0.000000 1.961915 2.779921 -0.970983 6.713064 5.932078 10.136322 -42.625926 -36.281981 -45.443185 -1.158307 31.703816 2.862048 0.000000 0.000000 0.000000 0.000000 0.000000 0.000000 -0.000000 0.000000 0.000000 0.942235 -3.737539 -5.035475 5.201088 7.477800 17.069000 -2.903246 7.473148 0.617907 0.000000 0.000000 0.000000 0.000000 0.000000 0.000000 -0.854538 -0.615097 -24.885976 0.158516 1.273094 -0.191466 -3.921513 19.233334 -1.461605 0.000000 0.000000 0.000000 -0.175047 0.473111 -25.074839 0.478539 -0.741371 0.102204 -0.477256 0.742197 -0.096017 0.000000 0.000000 0.000000
18.377056 75.441904 366.089107 0.338707 -0.373561 25.169029 -0.147685 0.482139 -25.167304 -0.000000 0.000000 0.000000 -1.708047 -3.625044 -0.960000 0.000000 0.000000 0.000000 0.925601 2.094426 -0.637745 7.533575 6.167769 9.783612 -44.364282 -37.914611 -46.576716 -1.039041 35.055423 3.835498 0.000000 0.000000 0.000000 0.000000 0.000000 0.000000 0.794880 -0.320733 -0.375443 0.314236 -3.778034 -5.062169 2.409782 5.153213 11.249469 0.051401 6.890219 5.600779 0.000000 0.000000 0.000000 0.000000 0.000000 0.000000 -0.781540 -0.462102 -25.002697 0.175393 1.123653 -0.166216 -3.991500 18.798743 -1.320272 0.000000 0.000000 0.000000 -0.147685 0.482139 -25.167304 0.562030 -0.697178 0.123428 -0.560568 0.698353 -0.116592 0.000000 0.000000 0.000000
18.387516 75.478611 366.093629 0.387452 -0.355144 25.207849 -0.199307 0.486336 -25.205802 -0.000000 0.000000 0.000000 -2.219327 -3.818269 -1.065297 0.000000 0.000000 0.000000 0.334510 1.645629 -0.439797 7.756330 5.824942 9.794825 -39.661949 -34.961936 -42.661440 -0.677740 31.055258 2.615301 0.000000 0.000000 0.000000 0.000000 0.000000 0.000000 1.283310 -0.978528 -0.681457 -0.904630 -3.663409 -6.447474 0.795405 2.566005 6.183182 3.358150 6.797387 10.561075 0.000000 0.000000 0.000000 0.000000 0.000000 0.000000 -0.776359 -0.279033 -25.071774 0.198368 0.937777 -0.134608 -4.647460 21.073904 -1.254765 0.000000 0.000000 0.000000 -0.199307 0.486336 -25.205802 0.654839 -0.559548 0.148307 -0.653420 0.561204 -0.141910 0.000000 0.000000 0.000000
18.410928 75.507384 366.100188 0.495357 -0.298775 25.149828 -0.321435 0.480963 -25.147187 -0.000000 0.000000 0.000000 -3.108046 -4.258498 -1.277531 0.000000 0.000000 0.000000 0.113460 1.333013 -0.332612 7.548194 5.220703 9.983651 -32.058324 -26.580168 -38.625256 0.913416 22.439211 4.516094 0.000000 0.000000 0.000000 0.000000 0.000000 0.000000 1.455774 -1.789097 -0.885510 -1.512638 -3.155995 -7.195419 1.141719 2.422161 6.418810 3.110328 5.423469 8.988714 0.000000 0.000000 0.000000 0.000000 0.000000 0.000000 -0.321435 0.480963 -25.147187 0.510978 -0.694829 0.154350 -6.313243 26.391385 -1.260312 0.000000 0.000000 0.000000 -1.112946 0.386648 -25.322098 0.675093 0.423803 0.178407 -0.000000 0.000000 0.000000 0.000000 0.000000 0.000000
18.441421 75.538976 366.111909 0.602539 -0.227259 25.099168 0.395509 0.229658 -25.070791 0.122595 0.026206 0.051673 -4.706280 -4.839583 -1.548806 0.000000 0.000000 0.000000 -0.764845 0.871986 -0.362529 6.956101 4.433956 10.345606 -27.348898 -19.203535 -37.880923 2.508634 15.611037 7.774155 0.000000 0.000000 0.000000 0.000000 0.000000 0.000000 0.413050 -2.467121 -1.029216 -1.015673 -1.972116 -5.534566 1.390989 0.858156 4.389392 1.316689 6.005320 7.963504 0.000000 0.000000 0.000000 0.000000 0.000000 0.000000 -0.449258 0.461377 -25.096164 0.516203 -0.900960 0.166456 -7.917042 32.776193 -1.023788 0.000000 0.000000 0.000000 -0.449258 0.461377 -25.096164 -0.000000 0.000000 0.000000 -0.000000 0.000000 0.000000 0.000000 0.000000 0.000000
18.474473 75.543900 366.127330 0.682696 -0.175705 25.013546 0.373009 0.222569 -24.982990 0.075645 -0.000987 0.050987 -4.872433 -5.036441 -1.616711 0.000000 0.000000 0.000000 -1.002519 -0.181301 -0.085193 7.080332 5.101440 10.173821 -26.177891 -17.773183 -37.235945 2.579100 14.029664 7.575600 0.000000 0.000000 0.000000 0.000000 0.000000 0.000000 0.387760 -2.885542 -1.097021 -0.765421 -1.212192 -4.631089 0.240322 -0.822153 0.849005 0.779064 5.745108 7.854994 0.000000 0.000000 0.000000 0.000000 0.000000 0.000000 -0.544386 0.447877 -25.010372 0.478395 -0.968241 0.160991 -8.084974 34.444631 -1.112696 0.000000 0.000000 0.000000 -0.544386 0.447877 -25.010372 -0.000000 0.000000 0.000000 -0.000000 0.000000 0.000000 0.000000 0.000000 0.000000
18.505554 75.548865 366.143873 0.736562 -0.135826 24.887100 0.320169 0.212267 -24.856011 0.019885 -0.029191 0.046926 -4.759194 -5.269418 -1.663384 0.000000 0.000000 0.000000 -0.957796 -0.160954 -0.081146 6.765968 4.410264 10.478405 -25.184474 -14.781666 -38.651614 2.971410 11.050941 8.395404 0.000000 0.000000 0.000000 0.000000 0.000000 0.000000 0.462277 -3.130154 -1.149839 -0.782574 -0.651740 -4.078329 -0.480789 -2.188007 -1.827557 0.883537 6.369366 9.159771 0.000000 0.000000 0.000000 0.000000 0.000000 0.000000 -0.611019 0.433167 -24.883917 0.382473 -0.979496 0.138711 -7.567735 33.744887 -1.331397 0.000000 0.000000 0.000000 -0.611019 0.433167 -24.883917 -0.000000 0.000000 0.000000 -0.000000 0.000000 0.000000 0.000000 0.000000 0.000000
18.530396 75.552969 366.163066 0.780731 -0.093182 24.780300 0.227501 0.190080 -24.749903 -0.047551 -0.056489 0.039785 -4.492733 -5.461567 -1.685415 0.000000 0.000000 0.000000 -0.860239 -0.117162 -0.072382 6.210075 3.186940 10.973955 -22.521189 -9.095037 -40.262545 3.927723 5.024703 9.598403 0.000000 0.000000 0.000000 0.000000 0.000000 0.000000 0.679207 -4.042662 -1.349808 -1.248035 0.297173 -4.201732 0.293798 -2.883073 -1.857875 1.224670 7.148688 10.314652 0.000000 0.000000 0.000000 0.000000 0.000000 0.000000 -0.669800 0.411822 -24.777258 0.240890 -0.783422 0.095066 -8.012417 37.854219 -1.547913 0.000000 0.000000 0.000000 -0.669800 0.411822 -24.777258 -0.000000 0.000000 0.000000 -0.000000 0.000000 0.000000 0.000000 0.000000 0.000000
18.549294 75.561465 366.186471 0.805277 -0.066565 24.733466 0.117132 0.166852 -24.704910 -0.841923 -0.133552 -0.030671 -3.356363 -5.505066 -1.605965 0.000000 0.000000 0.000000 -0.000000 0.000000 0.000000 5.776563 2.297534 11.217559 -21.276511 -6.179114 -41.570007 4.456581 1.464498 9.684881 0.000000 0.000000 0.000000 0.000000 0.000000 0.000000 1.406074 -4.347062 -1.301779 -1.599353 0.620269 -4.864227 1.379542 -2.687311 -0.441309 1.106544 7.131973 9.969807 0.000000 0.000000 0.000000 0.000000 0.000000 0.000000 -1.247554 -0.255222 -24.617687 0.222713 0.819877 -0.113790 -7.731846 37.028971 -1.585019 0.000000 0.000000 0.000000 -1.501322 0.233911 -24.913480 0.654650 0.484310 0.184550 -0.000000 0.000000 0.000000 0.000000 0.000000 0.000000
18.549994 75.572419 366.206954 0.796705 -0.062985 24.749142 -0.697171 0.390724 -24.746327 -0.000000 0.000000 0.000000 -2.956505 -5.506278 -1.551326 0.000000 0.000000 0.000000 -1.009663 -0.854362 0.329989 6.612574 2.866005 10.637396 -20.253942 -5.528594 -40.501500 4.017321 2.034073 9.351584 0.000000 0.000000 0.000000 0.000000 0.000000 0.000000 1.319838 -4.654135 -1.323061 -1.606886 0.825484 -5.101432 1.613680 -2.158800 0.498331 0.551848 6.311464 8.455139 0.000000 0.000000 0.000000 0.000000 0.000000 0.000000 -1.385445 -0.262719 -24.634388 0.353287 0.880852 -0.113887 -7.011341 32.774694 -1.473314 0.000000 0.000000 0.000000 -1.661624 0.508622 -24.940939 0.924187 0.299829 0.199763 -0.000000 0.000000 0.000000 0.000000 0.000000 0.000000
18.543891 75.582474 366.232271 0.802848 -0.048442 24.781949 -0.708621 0.380495 -24.779257 -0.000000 0.000000 0.000000 -2.861258 -5.717195 -1.587552 0.000000 0.000000 0.000000 -1.951157 -1.146912 0.512332 7.357134 2.933492 10.137439 -20.844518 -5.907291 -41.366760 4.493282 3.024241 10.722034 0.000000 0.000000 0.000000 0.000000 0.000000 0.000000 1.410515 -4.833596 -1.387216 -1.739672 0.871094 -5.273967 1.952412 -1.728428 1.450971 -0.051259 4.966840 6.298116 0.000000 0.000000 0.000000 0.000000 0.000000 0.000000 -1.418099 -0.243162 -24.672661 0.384402 0.862873 -0.108640 -6.733013 31.099913 -1.414552 0.000000 0.000000 0.000000 -1.761786 0.627924 -24.981718 1.059078 0.220565 0.209691 -0.463478 2.109247 -0.375194 0.000000 0.000000 0.000000
18.527715 75.593862 366.256220 0.826763 -0.022644 24.852487 -0.740693 0.368010 -24.849945 -0.000000 0.000000 0.000000 -3.114375 -6.019978 -1.694234 0.000000 0.000000 0.000000 -1.918084 -0.892164 0.452066 6.794256 1.793383 10.260755 -18.125064 -2.863549 -40.008251 4.848918 0.023652 10.922248 0.000000 0.000000 0.000000 0.000000 0.000000 0.000000 1.665743 -4.913950 -1.493986 -1.910408 0.741844 -5.369559 2.220868 -1.000740 2.746276 -0.677194 4.420284 4.891576 0.000000 0.000000 0.000000 0.000000 0.000000 0.000000 -1.452457 -0.233565 -24.747167 0.394598 0.844274 -0.104850 -6.558904 30.047956 -1.373922 0.000000 0.000000 0.000000 -1.722241 0.615073 -25.037733 0.993827 0.191614 0.194547 -0.285819 1.646102 -0.529485 0.000000 0.000000 0.000000
18.510196 75.605149 366.276934 0.882620 0.015869 24.925981 -0.008799 0.075526 -24.896983 -0.842851 -0.080216 -0.030209 -3.724470 -6.427409 -1.879368 0.000000 0.000000 0.000000 -1.882764 -0.867198 0.442148 6.600275 1.618900 10.090276 -17.444299 -2.369485 -39.349668 4.457270 0.208166 10.409141 0.000000 0.000000 0.000000 0.000000 0.000000 0.000000 1.792001 -5.041718 -1.561607 -2.424797 0.818213 -5.775140 3.436414 -0.666622 4.410779 -1.556608 3.781676 3.103814 0.000000 0.000000 0.000000 0.000000 0.000000 0.000000 -1.444411 -0.142856 -24.837782 0.368164 0.721838 -0.086928 -6.490481 29.692633 -1.367463 0.000000 0.000000 0.000000 -1.667494 0.537215 -25.091802 0.855341 0.202213 0.173426 1.218624 -3.280769 -1.016798 0.000000 0.000000 0.000000
18.495342 75.611204 366.295280 0.975458 0.074080 25.010739 0.148342 0.083805 -24.974619 0.026339 0.039456 0.053848 -5.776091 -7.200076 -2.264594 0.000000 0.000000 0.000000 -2.992865 -1.058207 0.327885 6.490523 1.476917 9.935615 -17.088859 -1.861721 -39.372074 4.076553 -0.325986 9.437384 0.000000 0.000000 0.000000 0.000000 0.000000 0.000000 0.573255 -5.344397 -1.617782 -2.445432 0.953383 -5.823584 3.785021 -0.773370 4.596223 -2.145622 3.665128 2.383608 0.000000 0.000000 0.000000 0.000000 0.000000 0.000000 -0.915316 0.345270 -25.008612 -0.000000 0.000000 0.000000 -6.538965 30.057188 -1.391786 0.000000 0.000000 0.000000 -0.915316 0.345270 -25.008612 -0.000000 0.000000 0.000000 2.505580 -7.597175 -1.324455 0.000000 0.000000 0.000000
